# ProBuilder 4.5.2
# https://unity3d.com/unity/features/worldbuilding/probuilder
# 8/13/2021 3:54:41 PM

mtllib ./Blade.mtl
o Blade

g Handle
v -1.75 4.033494 -2.580957E-08
v -1.875 4.25 0
v -1.75 4.033494 0.25
v -1.875 4.25 0.25
v -1.75 4.25 0
v -1.6875 4.141747 -1.290478E-08
v -1.75 4.25 0.25
v -1.6875 4.141747 0.25
v -1.5 4.033494 -2.580957E-08
v -1.5 4.033494 0.25
v -1.5625 4.141747 -1.290478E-08
v -1.5625 4.141747 0.25
v -1.375 4.25 2.605402E-15
v -1.375 4.25 0.25
v -1.5 4.25 1.302701E-15
v -1.5 4.25 0.25
v -1.5 4.466506 2.580957E-08
v -1.5 4.466506 0.2500001
v -1.5625 4.358253 1.290478E-08
v -1.5625 4.358253 0.25
v -1.75 4.466506 2.580957E-08
v -1.75 4.466506 0.2500001
v -1.6875 4.358253 1.290478E-08
v -1.6875 4.358253 0.25

vt 0.25 0
vt 0 0
vt 0.25 0.125
vt 0 0.125
vt -0.0625 0
vt -0.1875 0
vt -0.0625 0.125
vt -0.1875 0.125
vt 0.375 0
vt 0.125 0
vt 0.375 0.125
vt 0.125 0.125
vt -0.3125 0
vt -0.3125 0.125
vt -0.25 0
vt -0.25 0.125
vt 0.1875 0
vt 0.0625 0
vt 0.1875 0.125
vt 0.0625 0.125
vt -0.125 0
vt -0.375 0
vt -0.125 0.125
vt -0.375 0.125
vt 0.3125 0
vt 0.1875 0
vt 0.3125 0.125
vt 0.1875 0.125
vt 0.06250001 0
vt 0.06250001 0.125
vt 0.125 0.2165064
vt 0.125 0
vt 0.1875 0.1082532
vt -0.125 0.2165064
vt -0.1875 0.1082532
vt 0.375 0.2165063
vt 0.3125 0.1082532
vt -0.375 0.2165063
vt -0.3125 0.1082532
vt 0.5 -2.185569E-08
vt -0.5 -2.185569E-08
vt -0.375 -1.092785E-08
vt 0.375 -0.2165064
vt 0.3125 -0.1082532
vt -0.375 -0.2165064
vt -0.3125 -0.1082532
vt 0.125 -0.2165064
vt 0.1875 -0.1082532
vt -0.125 -0.2165064
vt -0.1875 -0.1082532

vn -0.8660254 -0.5000001 -5.960464E-08
vn 0.8660254 0.5000001 5.960464E-08
vn 5.960464E-08 -1 -1.192093E-07
vn -5.960464E-08 1 1.192093E-07
vn 0.8660254 -0.5000001 -5.960464E-08
vn -0.8660254 0.5000001 5.960464E-08
vn 0 2.384186E-07 -2
vn 0 -2.384186E-07 2

usemtl Blue_Blades
f 3/3/1 4/4/1 2/2/1 1/1/1
f 7/7/2 8/8/2 6/6/2 5/5/2
f 10/11/3 3/12/3 1/10/3 9/9/3
f 8/8/4 12/14/4 11/13/4 6/6/4
f 14/3/5 10/4/5 9/2/5 13/1/5
f 12/7/6 16/8/6 15/6/6 11/5/6
f 18/4/2 14/16/2 13/15/2 17/2/2
f 16/19/1 20/20/1 19/18/1 15/17/1
f 22/23/4 18/24/4 17/22/4 21/21/4
f 20/27/3 24/28/3 23/26/3 19/25/3
f 4/4/6 22/16/6 21/15/6 2/2/6
f 24/28/5 7/30/5 5/29/5 23/26/5
f 5/32/7 6/33/7 1/31/7 2/2/7
f 8/35/8 7/21/8 4/2/8 3/34/8
f 6/33/7 11/37/7 9/36/7 1/31/7
f 12/39/8 8/35/8 3/34/8 10/38/8
f 11/37/7 15/9/7 13/40/7 9/36/7
f 16/42/8 12/39/8 10/38/8 14/41/8
f 15/9/7 19/44/7 17/43/7 13/40/7
f 20/46/8 16/42/8 14/41/8 18/45/8
f 19/44/7 23/48/7 21/47/7 17/43/7
f 24/50/8 20/46/8 18/45/8 22/49/8
f 23/48/7 5/32/7 2/2/7 21/47/7
f 7/21/8 24/50/8 22/49/8 4/2/8

g Handle (1)
v -2.5 4.033494 -2.580957E-08
v -2.625 4.25 0
v -2.5 4.033494 0.25
v -2.625 4.25 0.25
v -2.5 4.25 0
v -2.4375 4.141747 -1.290478E-08
v -2.5 4.25 0.25
v -2.4375 4.141747 0.25
v -2.25 4.033494 -2.580957E-08
v -2.25 4.033494 0.25
v -2.3125 4.141747 -1.290478E-08
v -2.3125 4.141747 0.25
v -2.125 4.25 2.605402E-15
v -2.125 4.25 0.25
v -2.25 4.25 1.302701E-15
v -2.25 4.25 0.25
v -2.25 4.466506 2.580957E-08
v -2.25 4.466506 0.2500001
v -2.3125 4.358253 1.290478E-08
v -2.3125 4.358253 0.25
v -2.5 4.466506 2.580957E-08
v -2.5 4.466506 0.2500001
v -2.4375 4.358253 1.290478E-08
v -2.4375 4.358253 0.25

vt 0.25 0
vt 0 0
vt 0.25 0.125
vt 0 0.125
vt -0.0625 0
vt -0.1875 0
vt -0.0625 0.125
vt -0.1875 0.125
vt 0.375 0
vt 0.125 0
vt 0.375 0.125
vt 0.125 0.125
vt -0.3125 0
vt -0.3125 0.125
vt -0.25 0
vt -0.25 0.125
vt 0.1875 0
vt 0.0625 0
vt 0.1875 0.125
vt 0.0625 0.125
vt -0.125 0
vt -0.375 0
vt -0.125 0.125
vt -0.375 0.125
vt 0.3125 0
vt 0.1875 0
vt 0.3125 0.125
vt 0.1875 0.125
vt 0.06250001 0
vt 0.06250001 0.125
vt 0.125 0.2165064
vt 0.125 0
vt 0.1875 0.1082532
vt -0.125 0.2165064
vt -0.1875 0.1082532
vt 0.375 0.2165063
vt 0.3125 0.1082532
vt -0.375 0.2165063
vt -0.3125 0.1082532
vt 0.5 -2.185569E-08
vt -0.5 -2.185569E-08
vt -0.375 -1.092785E-08
vt 0.375 -0.2165064
vt 0.3125 -0.1082532
vt -0.375 -0.2165064
vt -0.3125 -0.1082532
vt 0.125 -0.2165064
vt 0.1875 -0.1082532
vt -0.125 -0.2165064
vt -0.1875 -0.1082532

vn -0.8660254 -0.5000001 -5.960464E-08
vn 0.8660254 0.5000001 5.960464E-08
vn 5.960464E-08 -1 -1.192093E-07
vn -5.960464E-08 1 1.192093E-07
vn 0.8660254 -0.5000001 -5.960464E-08
vn -0.8660254 0.5000001 5.960464E-08
vn 0 2.384186E-07 -2
vn 0 -2.384186E-07 2

usemtl Blue_Blades
f 27/53/9 28/54/9 26/52/9 25/51/9
f 31/57/10 32/58/10 30/56/10 29/55/10
f 34/61/11 27/62/11 25/60/11 33/59/11
f 32/58/12 36/64/12 35/63/12 30/56/12
f 38/53/13 34/54/13 33/52/13 37/51/13
f 36/57/14 40/58/14 39/56/14 35/55/14
f 42/54/10 38/66/10 37/65/10 41/52/10
f 40/69/9 44/70/9 43/68/9 39/67/9
f 46/73/12 42/74/12 41/72/12 45/71/12
f 44/77/11 48/78/11 47/76/11 43/75/11
f 28/54/14 46/66/14 45/65/14 26/52/14
f 48/78/13 31/80/13 29/79/13 47/76/13
f 29/82/15 30/83/15 25/81/15 26/52/15
f 32/85/16 31/71/16 28/52/16 27/84/16
f 30/83/15 35/87/15 33/86/15 25/81/15
f 36/89/16 32/85/16 27/84/16 34/88/16
f 35/87/15 39/59/15 37/90/15 33/86/15
f 40/92/16 36/89/16 34/88/16 38/91/16
f 39/59/15 43/94/15 41/93/15 37/90/15
f 44/96/16 40/92/16 38/91/16 42/95/16
f 43/94/15 47/98/15 45/97/15 41/93/15
f 48/100/16 44/96/16 42/95/16 46/99/16
f 47/98/15 29/82/15 26/52/15 45/97/15
f 31/71/16 48/100/16 46/99/16 28/52/16

g Blade
v -1.375 3.25 0.225
v -1.463388 3.161612 0.225
v -2.258883 4.133883 0.225
v -2.347272 4.045495 0.225
v -1.463388 3.161612 0.006249994
v -2.347272 4.045495 0.006249994
v -1.375 3.25 0.006249994
v -2.258883 4.133883 0.006249994

vt 0 0
vt -0.125 0
vt 0 1.25
vt -0.125 1.25
vt -0.25 0
vt -0.25 1.25
vt 0.125 0
vt 0.125 1.25
vt 0.25 0
vt 0.25 1.25
vt 0 -0.25
vt 0.125 -0.25
vt -0.125 -0.25

vn 0 0 0.875
vn -0.7071068 -0.7071068 0
vn 0 0 -0.875
vn 0.7071068 0.7071068 0
vn -0.7071068 0.7071068 0
vn 0.7071068 -0.7071068 0

usemtl Blue_Blades
f 51/103/17 52/104/17 50/102/17 49/101/17
f 52/103/18 54/106/18 53/105/18 50/101/18
f 54/108/19 56/103/19 55/101/19 53/107/19
f 56/110/20 51/103/20 49/101/20 55/109/20
f 56/111/21 54/112/21 52/107/21 51/101/21
f 49/101/22 50/102/22 53/113/22 55/111/22

g Blade (1)
v -2.5 3.15 0.225
v -2.588388 3.238389 0.225
v -1.616117 4.033884 0.225
v -1.704505 4.122272 0.225
v -2.588388 3.238389 0.006249994
v -1.704505 4.122272 0.006249994
v -2.5 3.15 0.006249994
v -1.616117 4.033884 0.006249994

vt 0 0
vt -0.125 0
vt 0 1.25
vt -0.125 1.25
vt -0.25 0
vt -0.25 1.25
vt 0.125 0
vt 0.125 1.25
vt 0.25 0
vt 0.25 1.25
vt 0 -0.25
vt 0.125 -0.25
vt -0.125 -0.25

vn 0 0 0.875
vn -0.7071068 0.7071068 0
vn 0 0 -0.875
vn 0.7071068 -0.7071068 0
vn 0.7071068 0.7071068 0
vn -0.7071068 -0.7071068 0

usemtl Blue_Blades
f 59/116/23 60/117/23 58/115/23 57/114/23
f 60/116/24 62/119/24 61/118/24 58/114/24
f 62/121/25 64/116/25 63/114/25 61/120/25
f 64/123/26 59/116/26 57/114/26 63/122/26
f 64/124/27 62/125/27 60/120/27 59/114/27
f 57/114/28 58/115/28 61/126/28 63/124/28

