# ProBuilder 4.5.2
# https://unity3d.com/unity/features/worldbuilding/probuilder
# 8/13/2021 3:56:25 PM

mtllib ./Paper.mtl
o Paper

g Palm
v 0.1875 0 0.125
v -0.1875 0 0.125
v 0.1875 0.28125 0.125
v -0.1875 0.28125 0.125
v -0.1875 0 -0.125
v -0.1875 0.28125 -0.125
v 0.1875 0 -0.125
v 0.1875 0.28125 -0.125

vt 0 0
vt -1 0
vt 0 0.75
vt -1 0.75
vt -0.25 0
vt -0.25 0.75
vt 1 0
vt 1 0.75
vt 0.25 0
vt 0.25 0.75
vt 0 -0.25
vt 1 -0.25
vt -1 -0.25

vn 0 0 1
vn -0.375 0 0
vn 0 0 -1
vn 0.375 0 0
vn 0 0.375 0
vn 0 -0.375 0

usemtl Red_Hand
f 3/3/1 4/4/1 2/2/1 1/1/1
f 4/3/2 6/6/2 5/5/2 2/1/2
f 6/8/3 8/3/3 7/1/3 5/7/3
f 8/10/4 3/3/4 1/1/4 7/9/4
f 8/11/5 6/12/5 4/7/5 3/1/5
f 1/1/6 2/2/6 5/13/6 7/11/6

g Thumb
v 0.1485 0.09225 0
v 0.2189769 0.1179015 0
v 0.1565161 0.07022595 0.1082532
v 0.226993 0.09587748 0.1082532
v 0.1725483 0.02617786 0.1082532
v 0.2430252 0.05182939 0.1082532
v 0.1805644 0.004153818 -1.092785E-08
v 0.2510414 0.02980534 -1.092785E-08
v 0.1725483 0.02617787 -0.1082532
v 0.2430252 0.05182939 -0.1082532
v 0.1565161 0.07022595 -0.1082532
v 0.2269931 0.09587748 -0.1082532
v 0.2894539 0.143553 0
v 0.29747 0.121529 0.1082532
v 0.3135022 0.07748091 0.1082532
v 0.3215183 0.05545686 -1.092785E-08
v 0.3135022 0.07748091 -0.1082532
v 0.29747 0.121529 -0.1082532
v 0.3599308 0.1692046 0
v 0.367947 0.1471805 0.1082532
v 0.3839791 0.1031324 0.1082532
v 0.3919953 0.08110838 -1.092785E-08
v 0.3839791 0.1031324 -0.1082532
v 0.367947 0.1471805 -0.1082532
v 0.1645322 0.04820191 0
v 0.375963 0.1251565 0

vt 0 0
vt 0 0.25
vt 0.125 0
vt 0.125 0.25
vt 0.06249999 0
vt 0.06249999 0.25
vt 0.1875 0
vt 0.1875 0.25
vt -0.125 0
vt -0.125 0.25
vt -0.1875 0
vt -0.1875 0.25
vt -0.06250001 0
vt -0.06250001 0.25
vt 0 0.5
vt 0.125 0.5
vt 0.06249999 0.5
vt 0.1875 0.5
vt -0.125 0.5
vt -0.1875 0.5
vt -0.06250001 0.5
vt 0 0.75
vt 0.125 0.75
vt 0.06249999 0.75
vt 0.1875 0.75
vt -0.125 0.75
vt -0.1875 0.75
vt -0.06250001 0.75
vt 0.0625 0.1082532
vt -0.0625 0.1082532
vt 0.1875 0.1082532
vt -0.1875 0.1082532
vt 0.25 -1.092785E-08
vt -0.25 -1.092785E-08
vt 0.1875 -0.1082532
vt -0.1875 -0.1082532
vt 0.06250001 -0.1082532
vt -0.06250001 -0.1082532

vn -0.1282576 0.3523847 -6.882551E-08
vn -0.0641288 0.1761924 0.8660254
vn 0.06412881 -0.1761924 0.8660254
vn 0.1282576 -0.3523847 -6.882551E-08
vn 0.06412879 -0.1761924 -0.8660254
vn -0.06412879 0.1761924 -0.8660254
vn -0.2819078 -0.1026061 0
vn 0.2819078 0.1026061 0

usemtl Red_Hand
f 9/14/13 33/16/13 11/42/13
f 11/42/13 33/16/13 13/44/13
f 13/44/13 33/16/13 15/46/13
f 15/46/13 33/16/13 17/48/13
f 17/48/13 33/16/13 19/50/13
f 19/50/13 33/16/13 9/14/13
f 28/43/14 34/22/14 27/14/14
f 29/45/14 34/22/14 28/43/14
f 30/47/14 34/22/14 29/45/14
f 31/49/14 34/22/14 30/47/14
f 32/51/14 34/22/14 31/49/14
f 27/14/14 34/22/14 32/51/14
f 12/17/8 10/15/7 9/14/7
f 9/14/7 11/16/8 12/17/8
f 14/21/9 12/19/8 11/18/8
f 11/18/8 13/20/9 14/21/9
f 16/17/10 14/15/9 13/14/9
f 13/14/9 15/16/10 16/17/10
f 18/15/11 16/23/10 15/22/10
f 15/22/10 17/14/11 18/15/11
f 20/27/12 18/25/11 17/24/11
f 17/24/11 19/26/12 20/27/12
f 10/15/7 20/23/12 19/22/12
f 19/22/12 9/14/7 10/15/7
f 22/29/8 21/28/7 10/15/7
f 10/15/7 12/17/8 22/29/8
f 23/31/9 22/30/8 12/19/8
f 12/19/8 14/21/9 23/31/9
f 24/29/10 23/28/9 14/15/9
f 14/15/9 16/17/10 24/29/10
f 25/28/11 24/32/10 16/23/10
f 16/23/10 18/15/11 25/28/11
f 26/34/12 25/33/11 18/25/11
f 18/25/11 20/27/12 26/34/12
f 21/28/7 26/32/12 20/23/12
f 20/23/12 10/15/7 21/28/7
f 28/36/8 27/35/7 21/28/7
f 21/28/7 22/29/8 28/36/8
f 29/38/9 28/37/8 22/30/8
f 22/30/8 23/31/9 29/38/9
f 30/36/10 29/35/9 23/28/9
f 23/28/9 24/29/10 30/36/10
f 31/35/11 30/39/10 24/32/10
f 24/32/10 25/28/11 31/35/11
f 32/41/12 31/40/11 25/33/11
f 25/33/11 26/34/12 32/41/12
f 27/35/7 32/39/12 26/32/12
f 26/32/12 21/28/7 27/35/7

g Index Finger
v 0.08625 0.28125 0
v 0.1728238 0.5247074 0
v 0.108274 0.2732339 0.1082532
v 0.1948479 0.5166913 0.1082532
v 0.1523221 0.2572017 0.1082532
v 0.238896 0.5006591 0.1082532
v 0.1743462 0.2491856 -1.092785E-08
v 0.26092 0.492643 -1.117587E-08
v 0.1523221 0.2572017 -0.1082532
v 0.238896 0.5006591 -0.1082532
v 0.1082741 0.2732339 -0.1082532
v 0.1948479 0.5166913 -0.1082532
v 0.1302981 0.2652178 0
v 0.2168719 0.5086752 0

vt 0 0
vt -0.002552717 0.7655984
vt 0.125 3.796866E-12
vt 0.1224473 0.7655984
vt 0.06249999 -4.302892E-11
vt 0.05739455 0.7655856
vt 0.1875 -4.302892E-11
vt 0.1823946 0.7655856
vt -2.222642E-09 -0.001250347
vt -0.002552705 0.764348
vt 0.125 -0.001250347
vt 0.1224473 0.764348
vt -0.125 -0.00125035
vt -0.1224473 0.764348
vt 0.002552714 0.764348
vt -0.1875 1.053506E-09
vt -0.1823945 0.7655856
vt -0.06250001 1.053506E-09
vt -0.05739461 0.7655856
vt -0.125 4.194443E-12
vt -0.1224473 0.7655984
vt 0.002552717 0.7655984
vt 0.0625 0.1082532
vt 0.005105434 0
vt -0.1198945 0
vt -0.05739456 0.1082532
vt 0.1875 0.1082532
vt -0.1823946 0.1082532
vt 0.25 -1.092785E-08
vt -0.2448946 -1.117587E-08
vt 0.1875 -0.1082532
vt -0.1823945 -0.1082532
vt 0.06250001 -0.1082532
vt -0.05739461 -0.1082532

vn -0.3531467 0.1261398 -1.032377E-07
vn -0.1765748 0.06307042 0.866023
vn 0.1765748 -0.06307043 0.866023
vn 0.3531467 -0.1261398 -8.603141E-08
vn 0.1765748 -0.06307042 -0.8660231
vn -0.1765748 0.06307042 -0.866023
vn -0.1154318 -0.3171462 0
vn 0.1154318 0.3171462 0

usemtl Red_Hand
f 35/52/21 47/54/21 37/74/21
f 37/74/21 47/54/21 39/78/21
f 39/78/21 47/54/21 41/80/21
f 41/80/21 47/54/21 43/82/21
f 43/82/21 47/54/21 45/84/21
f 45/84/21 47/54/21 35/52/21
f 38/77/22 48/76/22 36/75/22
f 40/79/22 48/76/22 38/77/22
f 42/81/22 48/76/22 40/79/22
f 44/83/22 48/76/22 42/81/22
f 46/85/22 48/76/22 44/83/22
f 36/75/22 48/76/22 46/85/22
f 38/55/16 36/53/15 35/52/15
f 35/52/15 37/54/16 38/55/16
f 40/59/17 38/57/16 37/56/16
f 37/56/16 39/58/17 40/59/17
f 42/63/18 40/61/17 39/60/17
f 39/60/17 41/62/18 42/63/18
f 44/66/19 42/65/18 41/64/18
f 41/64/18 43/60/19 44/66/19
f 46/70/20 44/68/19 43/67/19
f 43/67/19 45/69/20 46/70/20
f 36/73/15 46/72/20 45/71/20
f 45/71/20 35/52/15 36/73/15

g Middle Finger
v -0.006 0.28125 0
v 0.02096382 0.5894477 0
v 0.01734831 0.2792073 0.1082532
v 0.04431213 0.587405 0.1082532
v 0.06404494 0.2751219 0.1082532
v 0.09100876 0.5833196 0.1082532
v 0.08739325 0.2730792 -1.092785E-08
v 0.1143571 0.5812769 -1.092785E-08
v 0.06404493 0.2751219 -0.1082532
v 0.09100875 0.5833196 -0.1082532
v 0.01734832 0.2792073 -0.1082532
v 0.04431214 0.587405 -0.1082532
v 0.04069662 0.2771646 0
v 0.06766044 0.5853623 0

vt 0 0
vt 0 0.75
vt 0.125 0
vt 0.125 0.75
vt 0.06249999 0
vt 0.06249999 0.75
vt 0.1875 0
vt 0.1875 0.75
vt -0.125 0
vt -0.125 0.75
vt -0.1875 0
vt -0.1875 0.75
vt -0.06250001 0
vt -0.06250001 0.75
vt 0.0625 0.1082532
vt -0.0625 0.1082532
vt 0.1875 0.1082532
vt -0.1875 0.1082532
vt 0.25 -1.092785E-08
vt -0.25 -1.092785E-08
vt 0.1875 -0.1082532
vt -0.1875 -0.1082532
vt 0.06250001 -0.1082532
vt -0.06250001 -0.1082532

vn -0.373573 0.03268342 -3.441276E-08
vn -0.1867865 0.01634171 0.8660254
vn 0.1867865 -0.01634171 0.8660254
vn 0.373573 -0.03268342 -6.882551E-08
vn 0.1867865 -0.01634171 -0.8660254
vn -0.1867865 0.01634171 -0.8660254
vn -0.03595176 -0.4109303 0
vn 0.03595176 0.4109303 0

usemtl Red_Hand
f 49/86/29 61/88/29 51/100/29
f 51/100/29 61/88/29 53/102/29
f 53/102/29 61/88/29 55/104/29
f 55/104/29 61/88/29 57/106/29
f 57/106/29 61/88/29 59/108/29
f 59/108/29 61/88/29 49/86/29
f 52/101/30 62/94/30 50/86/30
f 54/103/30 62/94/30 52/101/30
f 56/105/30 62/94/30 54/103/30
f 58/107/30 62/94/30 56/105/30
f 60/109/30 62/94/30 58/107/30
f 50/86/30 62/94/30 60/109/30
f 52/89/24 50/87/23 49/86/23
f 49/86/23 51/88/24 52/89/24
f 54/93/25 52/91/24 51/90/24
f 51/90/24 53/92/25 54/93/25
f 56/89/26 54/87/25 53/86/25
f 53/86/25 55/88/26 56/89/26
f 58/87/27 56/95/26 55/94/26
f 55/94/26 57/86/27 58/87/27
f 60/99/28 58/97/27 57/96/27
f 57/96/27 59/98/28 60/99/28
f 50/87/23 60/95/28 59/94/28
f 59/94/28 49/86/23 50/87/23

g Ring Finger
v -0.09375 0.26625 0
v -0.1377047 0.5233454 0
v -0.07297671 0.2699129 0.1082532
v -0.1169314 0.5270084 0.1082532
v -0.03143014 0.2772387 0.1082532
v -0.07538485 0.5343341 0.1082532
v -0.01065685 0.2809016 -1.092785E-08
v -0.05461155 0.5379969 -1.117587E-08
v -0.03143014 0.2772387 -0.1082532
v -0.07538486 0.5343341 -0.1082532
v -0.07297671 0.2699129 -0.1082532
v -0.1169314 0.5270084 -0.1082532
v -0.05220342 0.2735758 0
v -0.09615813 0.5306712 0

vt 0 0
vt 0.002010718 0.7728145
vt 0.125 1.090356E-11
vt 0.1270107 0.7728146
vt 0.06249999 3.357616E-11
vt 0.06652143 0.7728067
vt 0.1875 3.357616E-11
vt 0.1915214 0.7728067
vt -2.222642E-09 0.0009756805
vt 0.002010709 0.7737902
vt 0.125 0.0009756805
vt 0.1270107 0.7737901
vt -0.125 0.0009756795
vt -0.1270107 0.7737901
vt -0.002010737 0.7737902
vt -0.1875 0
vt -0.1915214 0.7728067
vt -0.06250001 0
vt -0.06652147 0.7728067
vt -0.125 -1.142408E-11
vt -0.1270107 0.7728146
vt -0.002010718 0.7728145
vt 0.0625 0.1082532
vt -0.004021068 6.382658E-07
vt -0.129021 6.382658E-07
vt -0.06652107 0.1082538
vt 0.1875 0.1082532
vt -0.1915214 0.108254
vt 0.25 -1.092785E-08
vt -0.2540214 8.39845E-07
vt 0.1875 -0.1082532
vt -0.1915214 -0.108254
vt 0.06250001 -0.1082532
vt -0.06652147 -0.108254

vn -0.3326731 -0.05687595 -8.60316E-08
vn -0.1663374 -0.02843812 0.866024
vn 0.1663374 0.02843812 0.866024
vn 0.3326731 0.05687595 -8.60316E-08
vn 0.1663374 0.02843812 -0.866024
vn -0.1663374 -0.02843811 -0.866024
vn 0.05860628 -0.3323726 0
vn -0.05860612 0.3323726 -8.259062E-07

usemtl Red_Hand
f 63/110/37 75/112/37 65/132/37
f 65/132/37 75/112/37 67/136/37
f 67/136/37 75/112/37 69/138/37
f 69/138/37 75/112/37 71/140/37
f 71/140/37 75/112/37 73/142/37
f 73/142/37 75/112/37 63/110/37
f 66/135/38 76/134/38 64/133/38
f 68/137/38 76/134/38 66/135/38
f 70/139/38 76/134/38 68/137/38
f 72/141/38 76/134/38 70/139/38
f 74/143/38 76/134/38 72/141/38
f 64/133/38 76/134/38 74/143/38
f 66/113/32 64/111/31 63/110/31
f 63/110/31 65/112/32 66/113/32
f 68/117/33 66/115/32 65/114/32
f 65/114/32 67/116/33 68/117/33
f 70/121/34 68/119/33 67/118/33
f 67/118/33 69/120/34 70/121/34
f 72/124/35 70/123/34 69/122/34
f 69/122/34 71/118/35 72/124/35
f 74/128/36 72/126/35 71/125/35
f 71/125/35 73/127/36 74/128/36
f 64/131/31 74/130/36 73/129/36
f 73/129/36 63/110/31 64/131/31

g Pinky
v -0.171 0.246 0
v -0.2479546 0.4574308 0
v -0.1533808 0.2524129 0.1082532
v -0.2303353 0.4638437 0.1082532
v -0.1181423 0.2652386 0.1082532
v -0.1950969 0.4766695 0.1082532
v -0.1005231 0.2716515 -1.092785E-08
v -0.1774776 0.4830824 -1.092785E-08
v -0.1181423 0.2652386 -0.1082532
v -0.1950969 0.4766695 -0.1082532
v -0.1533808 0.2524129 -0.1082532
v -0.2303353 0.4638437 -0.1082532
v -0.1357615 0.2588258 0
v -0.2127161 0.4702566 0

vt 0 0
vt 0 0.75
vt 0.125 0
vt 0.125 0.75
vt 0.06249999 0
vt 0.06249999 0.75
vt 0.1875 0
vt 0.1875 0.75
vt -0.125 0
vt -0.125 0.75
vt -0.1875 0
vt -0.1875 0.75
vt -0.06250001 0
vt -0.06250001 0.75
vt 0.0625 0.1082532
vt -0.0625 0.1082532
vt 0.1875 0.1082532
vt -0.1875 0.1082532
vt 0.25 -1.092785E-08
vt -0.25 -1.092785E-08
vt 0.1875 -0.1082532
vt -0.1875 -0.1082532
vt 0.06250001 -0.1082532
vt -0.06250001 -0.1082532

vn -0.2819078 -0.1026061 -3.441276E-08
vn -0.1409539 -0.05130305 0.8660254
vn 0.1409539 0.05130306 0.8660254
vn 0.2819078 0.1026061 -6.882551E-08
vn 0.1409539 0.05130304 -0.8660254
vn -0.1409539 -0.05130305 -0.8660254
vn 0.1026061 -0.2819078 0
vn -0.1026061 0.2819078 0

usemtl Red_Hand
f 77/144/45 89/146/45 79/158/45
f 79/158/45 89/146/45 81/160/45
f 81/160/45 89/146/45 83/162/45
f 83/162/45 89/146/45 85/164/45
f 85/164/45 89/146/45 87/166/45
f 87/166/45 89/146/45 77/144/45
f 80/159/46 90/152/46 78/144/46
f 82/161/46 90/152/46 80/159/46
f 84/163/46 90/152/46 82/161/46
f 86/165/46 90/152/46 84/163/46
f 88/167/46 90/152/46 86/165/46
f 78/144/46 90/152/46 88/167/46
f 80/147/40 78/145/39 77/144/39
f 77/144/39 79/146/40 80/147/40
f 82/151/41 80/149/40 79/148/40
f 79/148/40 81/150/41 82/151/41
f 84/147/42 82/145/41 81/144/41
f 81/144/41 83/146/42 84/147/42
f 86/145/43 84/153/42 83/152/42
f 83/152/42 85/144/43 86/145/43
f 88/157/44 86/155/43 85/154/43
f 85/154/43 87/156/44 88/157/44
f 78/145/39 88/153/44 87/152/44
f 87/152/44 77/144/39 78/145/39

