# ProBuilder 4.5.2
# https://unity3d.com/unity/features/worldbuilding/probuilder
# 8/13/2021 3:56:45 PM

mtllib ./Scissors.mtl
o Scissors

g Palm
v 0.1875 0 0.125
v -0.1875 0 0.125
v 0.1875 0.28125 0.125
v -0.1875 0.28125 0.125
v -0.1875 0 -0.125
v -0.1875 0.28125 -0.125
v 0.1875 0 -0.125
v 0.1875 0.28125 -0.125

vt 0 0
vt -1 0
vt 0 0.75
vt -1 0.75
vt -0.25 0
vt -0.25 0.75
vt 1 0
vt 1 0.75
vt 0.25 0
vt 0.25 0.75
vt 0 -0.25
vt 1 -0.25
vt -1 -0.25

vn 0 0 1
vn -0.375 0 0
vn 0 0 -1
vn 0.375 0 0
vn 0 0.375 0
vn 0 -0.375 0

usemtl Blue_Hand
f 3/3/1 4/4/1 2/2/1 1/1/1
f 4/3/2 6/6/2 5/5/2 2/1/2
f 6/8/3 8/3/3 7/1/3 5/7/3
f 8/10/4 3/3/4 1/1/4 7/9/4
f 8/11/5 6/12/5 4/7/5 3/1/5
f 1/1/6 2/2/6 5/13/6 7/11/6

g Index Finger
v 0.085125 0.276 0
v 0.1716988 0.5194574 0
v 0.107149 0.2679839 0.1082532
v 0.1937229 0.5114413 0.1082532
v 0.1511971 0.2519517 0.1082532
v 0.237771 0.4954091 0.1082532
v 0.1732212 0.2439356 -1.092785E-08
v 0.259795 0.487393 -1.117587E-08
v 0.1511971 0.2519517 -0.1082532
v 0.237771 0.4954091 -0.1082532
v 0.107149 0.2679839 -0.1082532
v 0.1937229 0.5114413 -0.1082532
v 0.1291731 0.2599678 0
v 0.2157469 0.5034252 0

vt 0 0
vt -0.002552717 0.7655984
vt 0.125 3.796866E-12
vt 0.1224473 0.7655984
vt 0.06249999 -4.302892E-11
vt 0.05739455 0.7655856
vt 0.1875 -4.302892E-11
vt 0.1823946 0.7655856
vt -2.222642E-09 -0.001250347
vt -0.002552705 0.764348
vt 0.125 -0.001250347
vt 0.1224473 0.764348
vt -0.125 -0.00125035
vt -0.1224473 0.764348
vt 0.002552714 0.764348
vt -0.1875 1.053506E-09
vt -0.1823945 0.7655856
vt -0.06250001 1.053506E-09
vt -0.05739461 0.7655856
vt -0.125 4.194443E-12
vt -0.1224473 0.7655984
vt 0.002552717 0.7655984
vt 0.0625 0.1082532
vt 0.005105434 0
vt -0.1198945 0
vt -0.05739456 0.1082532
vt 0.1875 0.1082532
vt -0.1823946 0.1082532
vt 0.25 -1.092785E-08
vt -0.2448946 -1.117587E-08
vt 0.1875 -0.1082532
vt -0.1823945 -0.1082532
vt 0.06250001 -0.1082532
vt -0.05739461 -0.1082532

vn -0.3531467 0.1261398 -1.032377E-07
vn -0.1765748 0.06307042 0.866023
vn 0.1765748 -0.06307043 0.866023
vn 0.3531467 -0.1261398 -8.603141E-08
vn 0.1765748 -0.06307042 -0.8660231
vn -0.1765748 0.06307042 -0.866023
vn -0.1154318 -0.3171462 0
vn 0.1154318 0.3171462 0

usemtl Blue_Hand
f 9/14/13 21/16/13 11/36/13
f 11/36/13 21/16/13 13/40/13
f 13/40/13 21/16/13 15/42/13
f 15/42/13 21/16/13 17/44/13
f 17/44/13 21/16/13 19/46/13
f 19/46/13 21/16/13 9/14/13
f 12/39/14 22/38/14 10/37/14
f 14/41/14 22/38/14 12/39/14
f 16/43/14 22/38/14 14/41/14
f 18/45/14 22/38/14 16/43/14
f 20/47/14 22/38/14 18/45/14
f 10/37/14 22/38/14 20/47/14
f 12/17/8 10/15/7 9/14/7
f 9/14/7 11/16/8 12/17/8
f 14/21/9 12/19/8 11/18/8
f 11/18/8 13/20/9 14/21/9
f 16/25/10 14/23/9 13/22/9
f 13/22/9 15/24/10 16/25/10
f 18/28/11 16/27/10 15/26/10
f 15/26/10 17/22/11 18/28/11
f 20/32/12 18/30/11 17/29/11
f 17/29/11 19/31/12 20/32/12
f 10/35/7 20/34/12 19/33/12
f 19/33/12 9/14/7 10/35/7

g Middle Finger
v 0.0045 0.223125 0
v -0.1013125 0.5138424 0
v 0.02652404 0.2311411 0.1082532
v -0.07928848 0.5218585 0.1082532
v 0.07057214 0.2471733 0.1082532
v -0.0352404 0.5378907 0.1082532
v 0.09259618 0.2551894 -1.092785E-08
v -0.01321635 0.5459068 -1.092785E-08
v 0.07057213 0.2471733 -0.1082532
v -0.0352404 0.5378907 -0.1082532
v 0.02652405 0.2311411 -0.1082532
v -0.07928848 0.5218585 -0.1082532
v 0.04854809 0.2391572 0
v -0.05726444 0.5298746 0

vt 0 0
vt 0 0.75
vt 0.125 0
vt 0.125 0.75
vt 0.06249999 0
vt 0.06249999 0.75
vt 0.1875 0
vt 0.1875 0.75
vt -0.125 0
vt -0.125 0.75
vt -0.1875 0
vt -0.1875 0.75
vt -0.06250001 0
vt -0.06250001 0.75
vt 0.0625 0.1082532
vt -0.0625 0.1082532
vt 0.1875 0.1082532
vt -0.1875 0.1082532
vt 0.25 -1.092785E-08
vt -0.25 -1.092785E-08
vt 0.1875 -0.1082532
vt -0.1875 -0.1082532
vt 0.06250001 -0.1082532
vt -0.06250001 -0.1082532

vn -0.3523847 -0.1282576 -3.441276E-08
vn -0.1761924 -0.06412881 0.8660254
vn 0.1761924 0.06412882 0.8660254
vn 0.3523847 0.1282576 -6.882551E-08
vn 0.1761923 0.0641288 -0.8660254
vn -0.1761924 -0.06412881 -0.8660254
vn 0.1410834 -0.3876232 0
vn -0.1410834 0.3876232 0

usemtl Blue_Hand
f 23/48/21 35/50/21 25/62/21
f 25/62/21 35/50/21 27/64/21
f 27/64/21 35/50/21 29/66/21
f 29/66/21 35/50/21 31/68/21
f 31/68/21 35/50/21 33/70/21
f 33/70/21 35/50/21 23/48/21
f 26/63/22 36/56/22 24/48/22
f 28/65/22 36/56/22 26/63/22
f 30/67/22 36/56/22 28/65/22
f 32/69/22 36/56/22 30/67/22
f 34/71/22 36/56/22 32/69/22
f 24/48/22 36/56/22 34/71/22
f 26/51/16 24/49/15 23/48/15
f 23/48/15 25/50/16 26/51/16
f 28/55/17 26/53/16 25/52/16
f 25/52/16 27/54/17 28/55/17
f 30/51/18 28/49/17 27/48/17
f 27/48/17 29/50/18 30/51/18
f 32/49/19 30/57/18 29/56/18
f 29/56/18 31/48/19 32/49/19
f 34/61/20 32/59/19 31/58/19
f 31/58/19 33/60/20 34/61/20
f 24/49/15 34/57/20 33/56/20
f 33/56/20 23/48/15 24/49/15

g Knuckle
v -0.109875 0.27675 0
v -0.08643751 0.27675 0.1082532
v -0.06300001 0.323625 0
v -0.06300001 0.27675 0
v -0.03956251 0.27675 0.1082532
v -0.01612501 0.27675 -1.092785E-08
v -0.03956252 0.27675 -0.1082532
v -0.0864375 0.27675 -0.1082532

vt 0 0
vt 0.25 7.52188E-09
vt 0.125 0.3307189
vt 0.125 0.2165064
vt 0.375 0.2165063
vt 0.5 -2.185569E-08
vt 0.375 -0.2165064
vt 0.125 -0.2165064

vn -0.1227476 0.1227476 0.1889822
vn 0 -0.1875 0
vn 8.448164E-09 0.1227476 0.3779645
vn 0.1227476 0.1227476 0.1889822
vn 0.1227476 0.1227476 -0.1889823
vn 0 0.1227476 -0.3779645
vn -0.1227476 0.1227476 -0.1889823

usemtl Blue_Hand
f 37/72/23 38/73/23 39/74/23
f 40/73/24 38/75/24 37/72/24
f 38/72/25 41/73/25 39/74/25
f 40/73/24 41/76/24 38/75/24
f 41/72/26 42/73/26 39/74/26
f 40/73/24 42/77/24 41/76/24
f 42/72/27 43/73/27 39/74/27
f 40/73/24 43/78/24 42/77/24
f 43/72/28 44/73/28 39/74/28
f 40/73/24 44/79/24 43/78/24
f 44/72/29 37/73/29 39/74/29
f 40/73/24 37/72/24 44/79/24

g Knuckle
v -0.187875 0.277875 0
v -0.169125 0.277875 0.1082532
v -0.150375 0.315375 0
v -0.150375 0.277875 0
v -0.131625 0.277875 0.1082532
v -0.112875 0.277875 -1.092785E-08
v -0.131625 0.277875 -0.1082532
v -0.169125 0.277875 -0.1082532

vt 0 0
vt 0.25 7.52188E-09
vt 0.125 0.3307189
vt 0.125 0.2165064
vt 0.375 0.2165063
vt 0.5 -2.185569E-08
vt 0.375 -0.2165064
vt 0.125 -0.2165064

vn -0.09819806 0.09819806 0.1889822
vn 0 -0.15 0
vn 6.758532E-09 0.09819806 0.3779645
vn 0.09819806 0.09819806 0.1889822
vn 0.09819806 0.09819806 -0.1889823
vn 0 0.09819806 -0.3779645
vn -0.09819806 0.09819806 -0.1889823

usemtl Blue_Hand
f 45/80/30 46/81/30 47/82/30
f 48/81/31 46/83/31 45/80/31
f 46/80/32 49/81/32 47/82/32
f 48/81/31 49/84/31 46/83/31
f 49/80/33 50/81/33 47/82/33
f 48/81/31 50/85/31 49/84/31
f 50/80/34 51/81/34 47/82/34
f 48/81/31 51/86/31 50/85/31
f 51/80/35 52/81/35 47/82/35
f 48/81/31 52/87/31 51/86/31
f 52/80/36 45/81/36 47/82/36
f 48/81/31 45/80/31 52/87/31

