# ProBuilder 4.5.2
# https://unity3d.com/unity/features/worldbuilding/probuilder
# 8/13/2021 3:52:32 PM

mtllib ./Ship.mtl
o Ship

g Ship
v 0.0001997351 0.5091581 0.08627972
v -0.01825511 0.6525149 0.08627988
v -0.0847283 0.7566849 0.08627987
v -0.172775 0.8040338 0.08627969
v -0.2917367 0.7995216 0.08627987
v -0.4033136 0.7430194 0.0862797
v -0.4634725 0.6204498 0.08627989
v -0.4820657 0.5044423 0.08627972
v -0.4785842 0.3700376 0.08627974
v -0.5247751 0.4440605 0.08627973
v -0.5969371 0.4840328 0.08627973
v -0.6740479 0.4866245 0.08627973
v -0.7481402 0.452433 0.08627991
v -0.7963407 0.3675665 0.08627974
v -0.9584969 -0.8858 0.08627989
v -1.007425 -1.030112 0.08628009
v -1.108415 -1.119349 0.08627991
v -1.237406 -1.08611 0.08627991
v -1.463412 -0.9441177 0.0862799
v -1.995977 -0.4675346 0.08627966
v -2.101949 -0.4194689 0.08628001
v -2.185904 -0.4176612 0.08627965
v -2.255167 -0.4466937 0.08627984
v -2.310162 -0.5294374 0.08627985
v -2.289126 -0.6290519 0.08627986
v -2.170074 -0.791738 0.08627988
v -1.742548 -1.174279 0.08627992
v -1.495219 -1.392732 0.08627995
v -1.384254 -1.562496 0.08627997
v -1.347955 -2.024722 0.08628003
v -1.355527 -2.397885 0.08628007
v -0.02229112 -2.744904 0.08628029
v 0.1791948 -2.703751 0.08628011
v 0.2901675 -2.633361 0.0862801
v 0.6882389 -2.368909 0.08628006
v 0.8641539 -2.254338 0.08627988
v 0.9924254 -2.229775 0.08628005
v 1.086127 -2.122505 0.08628003
v 1.436698 -1.956957 0.08628002
v 1.812365 -1.892133 0.08628001
v 1.960714 -1.795069 0.08628
v 2.000506 -1.659183 0.08627998
v 1.957534 -1.548827 0.08627997
v 1.840236 -1.491581 0.08627996
v 1.6762 -1.478944 0.08627978
v 1.475021 -1.492856 0.08627996
v 1.300363 -1.543824 0.08627997
v 1.105789 -1.667304 0.08628016
v 0.8673254 -1.71688 0.08627999
v 0.63945 -1.702865 0.08627999
v 0.5062789 -1.53587 0.08627997
v 0.4412279 -1.178631 0.08627974
v 0.4254575 -0.6576807 0.08627968
v 0.4633448 0.2197589 0.08627976
v 0.4387714 0.3485162 0.08627974
v 0.3589034 0.4601892 0.08627973
v 0.2042116 0.5001876 0.08627973
v 0.09175158 0.4569625 0.08627973
v -0.7963407 0.3675665 0.25
v -0.6740479 0.4866245 0.25
v -0.7481402 0.452433 0.2500002
v -0.5969371 0.4840328 0.25
v -0.5247751 0.4440606 0.25
v -0.4785842 0.3700376 0.25
v -0.9584969 -0.8858 0.2500002
v -0.2917367 0.7995216 0.2500001
v -0.4033136 0.7430195 0.25
v -0.4634725 0.6204498 0.2500002
v -0.0847283 0.756685 0.2500001
v -0.172775 0.8040338 0.25
v -0.01825511 0.6525149 0.2500001
v 0.0001997352 0.5091581 0.25
v -0.4820657 0.5044423 0.25
v 0.08429128 0.4569625 0.25
v 0.4387714 0.3485162 0.25
v 0.3589034 0.4601892 0.25
v 0.2042116 0.5001876 0.25
v 0.4633448 0.2197589 0.25
v 0.4254575 -0.6576807 0.25
v -1.007425 -1.030112 0.2500004
v 0.4412279 -1.178631 0.25
v 0.5062789 -1.53587 0.2500002
v -2.289126 -0.6290519 0.2500001
v -2.255167 -0.4466937 0.2500001
v -2.310162 -0.5294374 0.2500001
v -2.185904 -0.4176612 0.2499999
v -2.101949 -0.4194689 0.2500003
v -1.995977 -0.4675345 0.2499999
v -2.170074 -0.7917379 0.2500001
v -1.463412 -0.9441177 0.2500002
v -1.742548 -1.174279 0.2500002
v -1.495219 -1.392732 0.2500002
v -1.237406 -1.08611 0.2500002
v -1.384254 -1.562496 0.2500002
v -1.108415 -1.119349 0.2500002
v -1.347955 -2.024722 0.2500003
v -1.355527 -2.397884 0.2500004
v -0.02229112 -2.744904 0.2500006
v 0.1791948 -2.703751 0.2500004
v 0.2901675 -2.633361 0.2500004
v 0.63945 -1.702865 0.2500003
v 0.6882389 -2.368909 0.2500003
v 0.8641539 -2.254338 0.2500001
v 0.8673254 -1.71688 0.2500003
v 0.9924254 -2.229775 0.2500003
v 1.086127 -2.122505 0.2500003
v 1.105789 -1.667304 0.2500004
v 1.436698 -1.956957 0.2500003
v 1.300363 -1.543824 0.2500002
v 1.475021 -1.492856 0.2500002
v 1.812365 -1.892133 0.2500003
v 1.6762 -1.478944 0.2500001
v 1.840236 -1.491581 0.2500002
v 1.960714 -1.795069 0.2500003
v 2.000506 -1.659183 0.2500003
v 1.957534 -1.548827 0.2500002

vt -0.0005326271 0.02442169
vt 0.04868031 0.4067063
vt 0.2259421 0.6844931
vt 0.4607334 0.8107567
vt 0.7779646 0.7987242
vt 1.075503 0.6480517
vt 1.235927 0.3211994
vt 1.285509 0.01184607
vt 1.276225 -0.3465662
vt 1.3994 -0.1491718
vt 1.591832 -0.04257917
vt 1.797461 -0.0356679
vt 1.99504 -0.1268454
vt 2.123575 -0.3531559
vt 2.555992 -3.695466
vt 2.686466 -4.080297
vt 2.955774 -4.318262
vt 3.299748 -4.229627
vt 3.902432 -3.85098
vt 5.322606 -2.580092
vt 5.605197 -2.451917
vt 5.829076 -2.447096
vt 6.01378 -2.524516
vt 6.160432 -2.745166
vt 6.104336 -3.010805
vt 5.786862 -3.444634
vt 4.646795 -4.464744
vt 3.98725 -5.047285
vt 3.691343 -5.499989
vt 3.594547 -6.73259
vt 3.614738 -7.727691
vt 0.059443 -8.653076
vt -0.4778528 -8.543334
vt -0.7737801 -8.355627
vt -1.835304 -7.650423
vt -2.30441 -7.3449
vt -2.646468 -7.279398
vt -2.896339 -6.993345
vt -3.831195 -6.551885
vt -4.832973 -6.379021
vt -5.22857 -6.120183
vt -5.334682 -5.757819
vt -5.22009 -5.463537
vt -4.907297 -5.310881
vt -4.469867 -5.277183
vt -3.933389 -5.314283
vt -3.467635 -5.450196
vt -2.948771 -5.779476
vt -2.312868 -5.911679
vt -1.7052 -5.874307
vt -1.350077 -5.428986
vt -1.176608 -4.476348
vt -1.134553 -3.087148
vt -1.235586 -0.7473094
vt -1.170057 -0.4039567
vt -0.9570758 -0.1061621
vt -0.5445642 0.0005002022
vt -0.2446709 -0.1147666
vt -2.123575 -0.3531559
vt -1.797461 -0.0356679
vt -1.99504 -0.1268454
vt -1.591832 -0.04257917
vt -1.3994 -0.1491718
vt -1.276225 -0.3465662
vt -2.555992 -3.695466
vt -0.7779646 0.7987242
vt -1.075503 0.6480517
vt -1.235927 0.3211994
vt -0.2259421 0.6844931
vt -0.4607334 0.8107567
vt -0.04868031 0.4067063
vt 0.0005326271 0.02442169
vt -1.285509 0.01184607
vt 0.2247767 -0.1147666
vt 1.170057 -0.4039567
vt 0.9570758 -0.1061621
vt 0.5445642 0.0005002022
vt 1.235586 -0.7473094
vt 1.134553 -3.087148
vt -2.686466 -4.080297
vt 1.176608 -4.476348
vt 1.350077 -5.428986
vt -6.104336 -3.010805
vt -6.01378 -2.524516
vt -6.160432 -2.745166
vt -5.829076 -2.447096
vt -5.605197 -2.451917
vt -5.322606 -2.580092
vt -5.786862 -3.444634
vt -3.902432 -3.85098
vt -4.646795 -4.464744
vt -3.98725 -5.047285
vt -3.299748 -4.229627
vt -3.691343 -5.499989
vt -2.955774 -4.318262
vt -3.594547 -6.73259
vt -3.614738 -7.727691
vt -0.059443 -8.653076
vt 0.4778528 -8.543334
vt 0.7737801 -8.355627
vt 1.7052 -5.874307
vt 1.835304 -7.650423
vt 2.30441 -7.3449
vt 2.312868 -5.911679
vt 2.646468 -7.279398
vt 2.896339 -6.993345
vt 2.948771 -5.779476
vt 3.831195 -6.551885
vt 3.467635 -5.450196
vt 3.933389 -5.314283
vt 4.832973 -6.379021
vt 4.469867 -5.277183
vt 4.907297 -5.310881
vt 5.22857 -6.120183
vt 5.334682 -5.757819
vt 5.22009 -5.463537
vt -1.647008 1.11684E-08
vt -1.86461 -4.656688E-07
vt -1.647008 0.4365873
vt -1.86461 0.4365869
vt -1.095572 -4.768372E-07
vt -1.355837 0
vt -1.095572 0.4365869
vt -1.355837 0.4365873
vt -1.589504 -1.637826E-09
vt -1.795249 -1.637826E-09
vt -1.589504 0.4365873
vt -1.795249 0.4365873
vt -1.151861 0
vt -1.371843 0
vt -1.151861 0.4365873
vt -1.371843 0.4365873
vt -0.3816064 0
vt -0.6142795 0
vt -0.3816064 0.4365873
vt -0.6142795 0.4365873
vt -0.6227067 0
vt -3.992873 0
vt -0.6227067 0.4365873
vt -3.992873 0.4365873
vt -0.3332056 -4.768372E-07
vt -0.666719 0
vt -0.3332056 0.4365869
vt -0.666719 0.4365873
vt 0.1078854 0
vt -0.2562138 -4.768372E-07
vt 0.1078854 0.4365873
vt -0.2562138 0.4365869
vt -0.5231876 -4.768372E-07
vt -0.7897761 0
vt -0.5231876 0.4365869
vt -0.7897761 0.4365873
vt -0.4296726 0
vt -0.7471319 -4.768372E-07
vt -0.4296726 0.4365873
vt -0.7471319 0.4365869
vt -0.3690357 -4.768372E-07
vt -0.6985614 -4.768372E-07
vt -0.3690357 0.4365869
vt -0.6985614 0.4365869
vt -0.0241538 6.980944E-12
vt -0.4095931 -4.768302E-07
vt -0.02415381 0.4365873
vt -0.4095931 0.4365869
vt 0.1215583 -4.768372E-07
vt -0.1917433 0
vt 0.1215583 0.4365869
vt -0.1917433 0.4365873
vt 0.0451297 -5.677435E-10
vt -0.3134028 -5.677435E-10
vt 0.04512971 0.4365873
vt -0.3134028 0.4365873
vt 0.2515028 0.000505233
vt -0.01242671 0.0005052327
vt 0.2684056 0.4372186
vt -0.01242671 0.4369666
vt 1.009226 0
vt 0.6431081 0
vt 1.009226 0.4365873
vt 0.6431081 0.4365873
vt 0.953178 2.260354E-09
vt 0.5270997 2.260354E-09
vt 0.953178 0.4365873
vt 0.5270997 0.4365873
vt 0.5124701 -2.841509E-09
vt 0.1725429 -2.841509E-09
vt 0.5124701 0.4365873
vt 0.1912583 0.4365873
vt 0.965692 0
vt 0.616142 0
vt 0.965692 0.4365873
vt 0.616142 0.4365873
vt 3.035331 4.768372E-07
vt 0.6933116 0
vt 3.035331 0.4365878
vt 0.6933116 0.4365873
vt -4.320489 0
vt -4.726837 -4.768372E-07
vt -4.320489 0.4365873
vt -4.726837 0.4365869
vt 4.5099 4.768372E-07
vt 3.120064 4.768372E-07
vt 4.5099 0.4365878
vt 3.120064 0.4365878
vt 5.58302 0
vt 4.614717 4.768372E-07
vt 5.58302 0.4365873
vt 4.614717 0.4365878
vt -5.431299 0
vt -5.696239 0
vt -5.431299 0.4365873
vt -5.696239 0.4365873
vt -1.413077 0
vt -1.684574 0
vt -1.413077 0.4365873
vt -1.684574 0.4365873
vt -6.321898 4.768372E-07
vt -6.522171 0
vt -6.321898 0.4365878
vt -6.522171 0.4365873
vt -5.551115 -4.768372E-07
vt -5.775046 4.768372E-07
vt -5.551115 0.4365869
vt -5.775046 0.4365878
vt -3.781549 4.768372E-07
vt -4.091849 -4.768372E-07
vt -3.781549 0.4365878
vt -4.091849 0.4365869
vt 1.175236 0
vt 0.6376513 0
vt 1.175236 0.4365873
vt 0.6376513 0.4365873
vt -0.3399989 0
vt -2.245793 4.768372E-07
vt -0.3399989 0.4365873
vt -2.245793 0.4365878
vt 2.015588 0
vt 0.4857586 0
vt 2.015588 0.4365873
vt 0.4857586 0.4365873
vt -0.3528284 0
vt -0.3528284 0.4365873
vt -0.5439643 0
vt -1.255724 0
vt -0.5439643 0.4365873
vt -1.255724 0.4365873
vt -2.043267 0
vt -2.584101 0
vt -2.043267 0.4365873
vt -2.584101 0.4365873
vt -1.78474 0
vt -2.13995 0
vt -1.78474 0.4365873
vt -2.13995 0.4365873
vt -5.194117 0
vt -6.430512 0
vt -5.194117 0.4365873
vt -6.430512 0.4365873
vt -4.714934 -4.768372E-07
vt -5.074314 0
vt -4.714934 0.4365869
vt -5.074314 0.4365873
vt 1.551646 0
vt -2.122107 -4.768372E-07
vt 1.551646 0.4365873
vt -2.122107 0.4365869
vt -6.804121 0
vt -7.799428 0
vt -6.804121 0.4365873
vt -7.799428 0.4365873
vt 4.172587 0
vt 3.822149 0
vt 4.172587 0.4365873
vt 3.822149 0.4365873
vt 1.789872 -4.768372E-07
vt 1.241484 0
vt 1.789872 0.4365869
vt 1.241484 0.4365873
vt 5.655921 0
vt 5.08634 0
vt 5.655921 0.4365873
vt 5.08634 0.4365873
vt 3.979095 0
vt 2.704675 0
vt 3.979095 0.4365873
vt 2.704675 0.4365873
vt 2.637296 0
vt 2.07747 4.768372E-07
vt 2.637296 0.4365873
vt 2.07747 0.4365878
vt 2.671394 0
vt 2.062578 0
vt 2.671394 0.4365873
vt 2.062578 0.4365873
vt 3.741316 0
vt 3.361497 0
vt 3.741316 0.4365873
vt 3.361497 0.4365873
vt -0.8818879 4.768372E-07
vt -1.23016 0
vt -0.8818879 0.4365878
vt -1.23016 0.4365873
vt 1.710655 -4.768372E-07
vt 1.061155 0
vt 1.710655 0.4365869
vt 1.061155 0.4365873
vt 0.3671897 0
vt 0.3671897 0.4365873
vt 0.007470133 0
vt -0.6070582 -4.768372E-07
vt 0.007470133 0.4365873
vt -0.6070582 0.4365869
vt 2.287216 0
vt 1.802036 0
vt 2.287216 0.4365873
vt 1.802036 0.4365873
vt -2.661286 0
vt -3.677868 0
vt -2.661286 0.4365873
vt -3.677868 0.4365873
vt 4.095145 4.768372E-07
vt 3.557386 0
vt 4.095145 0.4365878
vt 3.557386 0.4365873
vt 5.300718 0
vt 4.861991 4.768372E-07
vt 5.300718 0.4365873
vt 4.861991 0.4365878
vt -0.5516113 0
vt -1.024363 0
vt -0.5516113 0.4365873
vt -1.024363 0.4365873
vt 4.404121 0
vt 4.02654 0
vt 4.404121 0.4365873
vt 4.02654 0.4365873
vt 7.301117 0
vt 6.985312 0
vt 7.301117 0.4365873
vt 6.985312 0.4365873
vt 7.087497 0
vt 6.73944 0
vt 7.087497 0.4365873
vt 6.73944 0.4365873

vn -9.759907E-09 2.158931E-07 -0.3750001
vn 3.441224E-07 -3.087689E-07 0.3750001
vn -0.1571283 0.3404934 -3.477928E-08
vn -0.3260776 0.1851983 -2.207736E-08
vn 0.0125968 0.3747884 -3.828231E-08
vn 0.181707 0.328036 -3.910493E-08
vn 0.3181412 0.1985226 -2.366573E-08
vn -0.3719004 0.04811519 -5.735776E-09
vn -0.169415 0.3345499 -3.988145E-08
vn -0.336638 0.1652267 -1.969656E-08
vn 0.1776102 0.330272 -3.937149E-08
vn -0.01421345 0.3747306 -4.467136E-08
vn 0.316121 0.2017238 -2.404735E-08
vn 0.3719308 0.04788005 -4.989823E-09
vn -0.3702743 0.05934619 -7.074616E-09
vn -0.3748743 -0.009710439 9.918609E-10
vn 0.1977063 0.3185217 0.009008915
vn 0.1917186 0.3221481 0.004504441
vn 0.1857309 0.3257746 -3.332537E-08
vn 0.3050188 0.218148 -2.600526E-08
vn 0.09387562 0.3630598 -3.70843E-08
vn -0.1271597 0.3527824 -3.62697E-08
vn -0.1308404 0.3513852 -0.003064923
vn -0.1345211 0.3499879 -0.00612981
vn 0.3683516 0.07030016 -8.380431E-09
vn 0.3746509 -0.01617719 1.928471E-09
vn -0.3551433 0.1204086 -1.435382E-08
vn 0.3748283 0.01134689 -1.352654E-09
vn 0.3689333 0.06718053 -8.008541E-09
vn -0.3123109 0.2075738 -2.474472E-08
vn -0.3669082 -0.07748157 9.236522E-09
vn -0.1449645 0.3458473 -4.12282E-08
vn 0.008072671 0.3749132 -4.469312E-08
vn 0.1549002 0.3415127 -4.071148E-08
vn -0.302624 -0.2214582 2.639987E-08
vn 0.2500706 0.2794454 -3.331248E-08
vn -0.2500549 -0.2794594 3.331416E-08
vn -0.2482494 -0.2810646 3.35055E-08
vn 0.1994951 0.3175323 -3.785279E-08
vn -0.3138926 -0.2051741 2.445866E-08
vn -0.373849 -0.02935833 3.499785E-09
vn -0.2483072 0.2810135 -3.349941E-08
vn -0.09445916 -0.3629084 4.326205E-08
vn -0.3749228 0.00760705 -9.068308E-10
vn 0.2008632 -0.3166686 3.774984E-08
vn 0.07504406 -0.3674145 4.379922E-08
vn 0.2931897 0.2338051 -2.787174E-08
vn 0.2075074 -0.3123551 3.723562E-08
vn 0.2046548 -0.3142315 3.745931E-08
vn 0.02301935 0.3742929 -4.461918E-08
vn 0.2824244 -0.2467012 2.940907E-08
vn 0.07052848 -0.368308 4.390573E-08
vn -0.07632945 0.3671497 -4.376764E-08
vn 0.1601273 -0.3390934 4.042307E-08
vn -0.2009345 0.3166234 -3.774444E-08
vn -0.1050487 0.3599859 -4.291365E-08
vn 0.06376676 -0.3695387 4.405244E-08
vn -0.02587115 0.3741066 -4.459697E-08
vn 0.02880292 0.3738923 -4.457143E-08
vn 0.2053178 -0.3137988 3.740772E-08
vn 0.3598867 -0.1053877 1.256319E-08
vn 0.349442 0.1360709 -1.622092E-08
vn 0.1644733 0.3370068 -4.017433E-08

usemtl Ship
f 13/13/1 12/12/1 14/14/1
f 14/14/1 12/12/1 11/11/1
f 14/14/1 11/11/1 10/10/1
f 10/10/1 9/9/1 14/14/1
f 9/9/1 15/15/1 14/14/1
f 7/7/1 6/6/1 5/5/1
f 4/4/1 3/3/1 5/5/1
f 5/5/1 3/3/1 2/2/1
f 7/7/1 5/5/1 2/2/1
f 2/2/1 1/1/1 7/7/1
f 7/7/1 1/1/1 8/8/1
f 8/8/1 1/1/1 9/9/1
f 1/1/1 58/58/1 9/9/1
f 57/57/1 56/56/1 55/55/1
f 58/58/1 57/57/1 55/55/1
f 55/55/1 54/54/1 58/58/1
f 9/9/1 58/58/1 54/54/1
f 53/53/1 9/9/1 54/54/1
f 15/15/1 9/9/1 53/53/1
f 15/15/1 53/53/1 16/16/1
f 16/16/1 53/53/1 52/52/1
f 16/16/1 52/52/1 51/51/1
f 24/24/1 23/23/1 25/25/1
f 23/23/1 22/22/1 25/25/1
f 25/25/1 22/22/1 21/21/1
f 25/25/1 21/21/1 20/20/1
f 20/20/1 26/26/1 25/25/1
f 20/20/1 19/19/1 26/26/1
f 26/26/1 19/19/1 27/27/1
f 27/27/1 19/19/1 28/28/1
f 19/19/1 18/18/1 28/28/1
f 28/28/1 18/18/1 29/29/1
f 18/18/1 17/17/1 29/29/1
f 17/17/1 30/30/1 29/29/1
f 17/17/1 16/16/1 30/30/1
f 30/30/1 32/32/1 31/31/1
f 30/30/1 16/16/1 32/32/1
f 32/32/1 34/34/1 33/33/1
f 32/32/1 16/16/1 34/34/1
f 51/51/1 34/34/1 16/16/1
f 51/51/1 50/50/1 34/34/1
f 50/50/1 35/35/1 34/34/1
f 36/36/1 35/35/1 50/50/1
f 49/49/1 36/36/1 50/50/1
f 36/36/1 38/38/1 37/37/1
f 49/49/1 38/38/1 36/36/1
f 48/48/1 38/38/1 49/49/1
f 48/48/1 39/39/1 38/38/1
f 47/47/1 39/39/1 48/48/1
f 46/46/1 39/39/1 47/47/1
f 46/46/1 40/40/1 39/39/1
f 46/46/1 45/45/1 40/40/1
f 40/40/1 45/45/1 44/44/1
f 40/40/1 44/44/1 41/41/1
f 41/41/1 44/44/1 42/42/1
f 43/43/1 42/42/1 44/44/1
f 113/113/2 115/115/2 116/116/2
f 115/115/2 113/113/2 114/114/2
f 114/114/2 113/113/2 111/111/2
f 113/113/2 112/112/2 111/111/2
f 111/111/2 112/112/2 110/110/2
f 108/108/2 111/111/2 110/110/2
f 109/109/2 108/108/2 110/110/2
f 107/107/2 108/108/2 109/109/2
f 106/106/2 108/108/2 107/107/2
f 104/104/2 106/106/2 107/107/2
f 103/103/2 106/106/2 104/104/2
f 105/105/2 106/106/2 103/103/2
f 101/101/2 103/103/2 104/104/2
f 101/101/2 102/102/2 103/103/2
f 100/100/2 102/102/2 101/101/2
f 100/100/2 101/101/2 82/82/2
f 80/80/2 100/100/2 82/82/2
f 100/100/2 80/80/2 98/98/2
f 99/99/2 100/100/2 98/98/2
f 98/98/2 80/80/2 96/96/2
f 97/97/2 98/98/2 96/96/2
f 96/96/2 80/80/2 95/95/2
f 94/94/2 96/96/2 95/95/2
f 94/94/2 95/95/2 93/93/2
f 94/94/2 93/93/2 92/92/2
f 92/92/2 93/93/2 90/90/2
f 92/92/2 90/90/2 91/91/2
f 91/91/2 90/90/2 89/89/2
f 89/89/2 90/90/2 88/88/2
f 83/83/2 89/89/2 88/88/2
f 88/88/2 87/87/2 83/83/2
f 87/87/2 86/86/2 83/83/2
f 83/83/2 86/86/2 84/84/2
f 83/83/2 84/84/2 85/85/2
f 82/82/2 81/81/2 80/80/2
f 81/81/2 79/79/2 80/80/2
f 80/80/2 79/79/2 65/65/2
f 79/79/2 64/64/2 65/65/2
f 78/78/2 64/64/2 79/79/2
f 78/78/2 74/74/2 64/64/2
f 74/74/2 78/78/2 75/75/2
f 75/75/2 77/77/2 74/74/2
f 75/75/2 76/76/2 77/77/2
f 64/64/2 74/74/2 72/72/2
f 64/64/2 72/72/2 73/73/2
f 73/73/2 72/72/2 68/68/2
f 68/68/2 72/72/2 71/71/2
f 71/71/2 66/66/2 68/68/2
f 71/71/2 69/69/2 66/66/2
f 66/66/2 69/69/2 70/70/2
f 66/66/2 67/67/2 68/68/2
f 59/59/2 65/65/2 64/64/2
f 59/59/2 64/64/2 63/63/2
f 63/63/2 62/62/2 59/59/2
f 62/62/2 60/60/2 59/59/2
f 59/59/2 60/60/2 61/61/2
f 13/120/3 61/118/3 60/117/3
f 60/117/3 12/119/3 13/120/3
f 14/124/4 59/122/4 61/121/4
f 61/121/4 13/123/4 14/124/4
f 12/128/5 60/126/5 62/125/5
f 62/125/5 11/127/5 12/128/5
f 11/132/6 62/130/6 63/129/6
f 63/129/6 10/131/6 11/132/6
f 10/136/7 63/134/7 64/133/7
f 64/133/7 9/135/7 10/136/7
f 15/140/8 65/138/8 59/137/8
f 59/137/8 14/139/8 15/140/8
f 6/144/9 67/142/9 66/141/9
f 66/141/9 5/143/9 6/144/9
f 7/148/10 68/146/10 67/145/10
f 67/145/10 6/147/10 7/148/10
f 4/152/11 70/150/11 69/149/11
f 69/149/11 3/151/11 4/152/11
f 5/156/12 66/154/12 70/153/12
f 70/153/12 4/155/12 5/156/12
f 3/160/13 69/158/13 71/157/13
f 71/157/13 2/159/13 3/160/13
f 2/164/14 71/162/14 72/161/14
f 72/161/14 1/163/14 2/164/14
f 8/168/15 73/166/15 68/165/15
f 68/165/15 7/167/15 8/168/15
f 9/172/16 64/170/16 73/169/16
f 73/169/16 8/171/16 9/172/16
f 1/176/19 72/174/18 74/173/17
f 74/173/17 58/175/18 1/176/19
f 56/180/20 76/178/20 75/177/20
f 75/177/20 55/179/20 56/180/20
f 57/184/21 77/182/21 76/181/21
f 76/181/21 56/183/21 57/184/21
f 58/188/24 74/186/23 77/185/22
f 77/185/22 57/187/23 58/188/24
f 55/192/25 75/190/25 78/189/25
f 78/189/25 54/191/25 55/192/25
f 54/196/26 78/194/26 79/193/26
f 79/193/26 53/195/26 54/196/26
f 16/200/27 80/198/27 65/197/27
f 65/197/27 15/199/27 16/200/27
f 53/204/28 79/202/28 81/201/28
f 81/201/28 52/203/28 53/204/28
f 52/208/29 81/206/29 82/205/29
f 82/205/29 51/207/29 52/208/29
f 24/212/30 85/210/30 84/209/30
f 84/209/30 23/211/30 24/212/30
f 25/216/31 83/214/31 85/213/31
f 85/213/31 24/215/31 25/216/31
f 23/220/32 84/218/32 86/217/32
f 86/217/32 22/219/32 23/220/32
f 22/224/33 86/222/33 87/221/33
f 87/221/33 21/223/33 22/224/33
f 21/228/34 87/226/34 88/225/34
f 88/225/34 20/227/34 21/228/34
f 26/232/35 89/230/35 83/229/35
f 83/229/35 25/231/35 26/232/35
f 20/236/36 88/234/36 90/233/36
f 90/233/36 19/235/36 20/236/36
f 27/240/37 91/238/37 89/237/37
f 89/237/37 26/239/37 27/240/37
f 28/242/38 92/241/38 91/182/38
f 91/182/38 27/184/38 28/242/38
f 19/246/39 90/244/39 93/243/39
f 93/243/39 18/245/39 19/246/39
f 29/250/40 94/248/40 92/247/40
f 92/247/40 28/249/40 29/250/40
f 18/254/21 93/252/21 95/251/21
f 95/251/21 17/253/21 18/254/21
f 30/258/41 96/256/41 94/255/41
f 94/255/41 29/257/41 30/258/41
f 17/262/42 95/260/42 80/259/42
f 80/259/42 16/261/42 17/262/42
f 32/266/43 98/264/43 97/263/43
f 97/263/43 31/265/43 32/266/43
f 31/270/44 97/268/44 96/267/44
f 96/267/44 30/269/44 31/270/44
f 34/274/45 100/272/45 99/271/45
f 99/271/45 33/273/45 34/274/45
f 33/278/46 99/276/46 98/275/46
f 98/275/46 32/277/46 33/278/46
f 51/282/47 82/280/47 101/279/47
f 101/279/47 50/281/47 51/282/47
f 35/286/48 102/284/48 100/283/48
f 100/283/48 34/285/48 35/286/48
f 36/290/49 103/288/49 102/287/49
f 102/287/49 35/289/49 36/290/49
f 50/294/50 101/292/50 104/291/50
f 104/291/50 49/293/50 50/294/50
f 38/298/51 106/296/51 105/295/51
f 105/295/51 37/297/51 38/298/51
f 37/302/52 105/300/52 103/299/52
f 103/299/52 36/301/52 37/302/52
f 49/306/53 104/304/53 107/303/53
f 107/303/53 48/305/53 49/306/53
f 39/144/54 108/142/54 106/307/54
f 106/307/54 38/308/54 39/144/54
f 48/312/55 107/310/55 109/309/55
f 109/309/55 47/311/55 48/312/55
f 47/316/56 109/314/56 110/313/56
f 110/313/56 46/315/56 47/316/56
f 40/320/57 111/318/57 108/317/57
f 108/317/57 39/319/57 40/320/57
f 46/324/58 110/322/58 112/321/58
f 112/321/58 45/323/58 46/324/58
f 45/328/59 112/326/59 113/325/59
f 113/325/59 44/327/59 45/328/59
f 41/332/60 114/330/60 111/329/60
f 111/329/60 40/331/60 41/332/60
f 42/336/61 115/334/61 114/333/61
f 114/333/61 41/335/61 42/336/61
f 43/340/62 116/338/62 115/337/62
f 115/337/62 42/339/62 43/340/62
f 44/344/63 113/342/63 116/341/63
f 116/341/63 43/343/63 44/344/63

